<svg xmlns="http://www.w3.org/2000/svg" width="668.6" height="593.5"><rect width="558.7" height="426.5" x="59" fill="#d7d7d8" rx="21.8" ry="21.8"/><path fill="#fff" d="M80.7 5C71.5 5 64 12.5 64 21.8v382.9c0 9.2 7.5 16.8 16.7 16.8H596c9.2 0 16.7-7.6 16.7-16.8v-383c0-9.2-7.5-16.7-16.7-16.7H80.7Z"/><path fill="#d7d7d8" d="M336.3 2.5h4v421.8h-4z"/><circle cx="314.6" cy="65.6" r="5.7" fill="#d7d7d8"/><circle cx="362" cy="65.6" r="5.7" fill="#d7d7d8"/><circle cx="314.6" cy="139.4" r="5.7" fill="#d7d7d8"/><circle cx="362" cy="139.4" r="5.7" fill="#d7d7d8"/><circle cx="314.6" cy="213.2" r="5.7" fill="#d7d7d8"/><circle cx="362" cy="213.2" r="5.7" fill="#d7d7d8"/><circle cx="314.6" cy="287.1" r="5.7" fill="#d7d7d8"/><circle cx="362" cy="287.1" r="5.7" fill="#d7d7d8"/><circle cx="314.6" cy="360.9" r="5.7" fill="#d7d7d8"/><circle cx="362" cy="360.9" r="5.7" fill="#d7d7d8"/><path fill="#d7d7d8" d="m315 63-1-1.7c.3-.2 26.1-15.8 48.6 0l-1.2 1.6c-21.3-15-46 0-46.3 0Z"/><path fill="#d7d7d8" d="m315 69.9-1-1.7c.3-.2 26.1-15.8 48.6 0l-1.2 1.7c-21.3-15-46-.2-46.3 0ZM315 137.1l-1-1.7c.3-.1 26.1-15.7 48.6 0l-1.2 1.7c-21.3-15-46-.1-46.3 0Z"/><path fill="#d7d7d8" d="m315 144-1-1.6c.3-.2 26.1-15.8 48.6 0l-1.2 1.6c-21.3-15-46 0-46.3 0ZM315 211.3l-1-1.7c.3-.2 26.1-15.8 48.6 0l-1.2 1.6c-21.3-15-46 0-46.3 0Z"/><path fill="#d7d7d8" d="m315 218.2-1-1.7c.3-.1 26.1-15.8 48.6 0l-1.2 1.7c-21.3-15-46-.1-46.3 0ZM315 285.4l-1-1.7c.3-.1 26.1-15.7 48.6 0l-1.2 1.7c-21.3-15-46-.1-46.3 0Z"/><path fill="#d7d7d8" d="m315 292.4-1-1.7c.3-.2 26.1-15.8 48.6 0l-1.2 1.6c-21.3-15-46 0-46.3 0ZM315 359.6l-1-1.7c.3-.2 26.1-15.8 48.6 0l-1.2 1.6c-21.3-15-46 0-46.3 0Z"/><path fill="#d7d7d8" d="m315 366.5-1-1.7c.3-.2 26.1-15.8 48.6 0l-1.2 1.7c-21.3-15-46-.2-46.3 0Z"/><path fill="#2f2e43" d="M464.9 111.8s-20.6 2.3-22 34.2c-1 26.5-3.3 41.3 7.5 46.9 3.8 2 8.4 2.1 12.5.8l44.1-14.5s.7-47.8-14.6-59.5c-15.3-11.6-27.6-8-27.6-8Z"/><path fill="#f3a3a6" d="m489.2 185-22.4 7.4v-32.2h20.3l2.1 24.8zM421 367.4c-1.3 7.4-6.2 12.7-11 11.8-4.9-.8-7.8-7.5-6.6-14.9a18 18 0 0 1 3.4-8.1l5.5-31.1 15 3.1-7 30.4c1 2.8 1.2 5.9.6 8.8ZM472 574.3h-20.9L439 462.6h32.3l.7 111.7z"/><path fill="#2f2e43" d="M430.8 592.3c-2.2 0-4.2 0-5.7-.2a26.1 26.1 0 0 1-13.5-7 3.8 3.8 0 0 1 1.5-6.4l14.7-4.2 23.8-16 .2.4c.1.2 2.4 4.4 3.2 7.2.3 1.1.2 2-.2 2.7-.3.5-.8.8-1.1 1 .4.4 1.8 1.3 6 2 6 1 7.3-5.4 7.3-5.6v-.2l.2-.2c3-1.8 4.7-2.7 5.3-2.5.4.1 1 .3 2.7 17.4.2.6 1.4 4.5.6 8.3-.9 4-18.8 2.7-22.4 2.3 0 0-13.4 1-22.6 1Z"/><path fill="#f3a3a6" d="M519.3 574.3h-20.9l-12.2-111.7h32.3l.8 111.7z"/><path fill="#2f2e43" d="M478 592.3c-2.2 0-4.2 0-5.6-.2a26.1 26.1 0 0 1-13.5-7 3.8 3.8 0 0 1 1.5-6.4l14.6-4.2 23.8-16 .3.4c0 .2 2.4 4.4 3.2 7.2.3 1.1.2 2-.3 2.7-.3.5-.7.8-1 1 .4.4 1.7 1.3 5.9 2 6 1 7.3-5.4 7.3-5.6v-.2l.3-.2c2.9-1.8 4.6-2.7 5.2-2.5.4.1 1 .3 2.8 17.4.1.6 1.4 4.5.5 8.3-.9 4-18.7 2.7-22.3 2.3-.1 0-13.5 1-22.7 1Z"/><path fill="#6c63ff" d="M525.3 300H423.7l36.5-120.2h40.5L525.3 300z"/><path fill="#6c63ff" d="M466.6 179.8s-25.2-.6-27.9 6c-2.6 6.7-33.8 164.7-33.8 164.7h20.5l41.2-170.6Z"/><circle cx="469.6" cy="146.9" r="22.2" fill="#f3a3a6"/><path fill="#2f2e43" d="M463.5 120s-12.2 49.8 1.4 73l-19.2-4s-7.4-54.5 7.5-64.3l10.3-4.6ZM504.2 300h-66.7L401 449.7a13 13 0 0 0 9.5 13.9c20 5.3 68 12.9 140.7-8.3 7-2 11-9.4 8.8-16.3l-55.8-139ZM668.6 592.3c0 .7-.5 1.2-1.2 1.2H1.2c-.7 0-1.2-.5-1.2-1.2s.5-1.2 1.2-1.2h666.2c.7 0 1.2.5 1.2 1.2Z"/><path fill="#6c63ff" d="m477.2 179.8 20.7-.9c9 .7 17.1 5.6 22 13.2 14.6 23.1 42 72 17.5 78.6-32.2 8.9-47.8-40.2-47.8-40.2l-12.4-50.7Z"/><path fill="#2f2e43" d="m458.1 197.5 50.8-37c.6-.4 1.4-.3 1.8.3l1.3 1.7c.4.6.3 1.4-.3 1.9l-50.8 37-6.7 2.8-.5-.7 4.4-6Z"/><path fill="#f3a3a6" d="M470.1 194.4c-4.3-6.2-4.4-13.4-.3-16.1 4-2.8 10.8 0 15 6a18 18 0 0 1 3.2 8.3l17.8 26.1-13 8.3-16.1-26.7c-2.7-1.4-5-3.5-6.6-6Z"/><path fill="#6c63ff" d="m480.6 215.5 14.6-13.4 28.9 26.9-26.9 18.4-16.6-31.9zM110.8 75.9a1394.2 1394.2 0 0 1 157.7 2.9c1.9.1 1.9-2.9 0-3a1392.4 1392.4 0 0 0-157.7-2.9c-1.9 0-2 3 0 3Z"/><path fill="#2f2e43" d="M110.8 109.8a1394.2 1394.2 0 0 1 157.7 3c1.9 0 1.9-3 0-3a1392.4 1392.4 0 0 0-157.7-3c-1.9.1-2 3.1 0 3ZM110.8 143.8c16.7-.7 33.4-1.4 50.1-1.7 14.3-.3 28.6 0 42.8.7 10.2.5 20.4 1.1 30.5 2 2 0 2-3 0-3a887.5 887.5 0 0 0-50-2.7c-14.3-.3-28.5 0-42.8.5l-30.6 1.2c-1.9 0-1.9 3 0 3ZM110.8 177.7c17.7-.7 35.4-1.4 53-1.6a782.4 782.4 0 0 1 79 2.6c2 .1 2-2.9 0-3a908.1 908.1 0 0 0-100.3-2.1l-31.7 1.1c-1.9.1-1.9 3.1 0 3ZM110.8 211.7l48.2-2.4a498.1 498.1 0 0 1 69.5 1.3c2 .2 2-2.8 0-3-16-1.2-32-2-48-2-13.3.2-26.6 1-39.8 1.7l-29.9 1.4c-1.9 0-1.9 3 0 3ZM110.8 245.6a1394.2 1394.2 0 0 1 157.7 2.9c1.9.1 1.9-2.9 0-3a1392.4 1392.4 0 0 0-157.7-3c-1.9.2-2 3.2 0 3Z"/></svg>